<?xml version="1.0" encoding="UTF-8" standalone="no"?><!-- Generator: Gravit.io --><svg xmlns="http://www.w3.org/2000/svg" xmlns:xlink="http://www.w3.org/1999/xlink" style="isolation:isolate" viewBox="0 0 120 30" width="120pt" height="30pt"><defs><clipPath id="_clipPath_ns8yU9TszJx2vdRr8rGJ4c9SF4K0dqIE"><rect width="120" height="30"/></clipPath></defs><g clip-path="url(#_clipPath_ns8yU9TszJx2vdRr8rGJ4c9SF4K0dqIE)"><rect x="87" y="0" width="33" height="30" transform="matrix(1,0,0,1,0,0)" fill="rgb(187,237,88)"/><rect x="0" y="0" width="87" height="30" transform="matrix(1,0,0,1,0,0)" fill="rgb(69,69,69)"/><g clip-path="url(#_clipPath_cNJ3CvdnBk484dWEYXpS3LYQSIfTrSEH)"><text transform="matrix(1,0,0,1,3,20.034)" style="font-family:'Monda';font-weight:400;font-size:13px;font-style:normal;fill:#e8e8e8;stroke:none;">MADE WITH</text></g><defs><clipPath id="_clipPath_cNJ3CvdnBk484dWEYXpS3LYQSIfTrSEH"><rect x="0" y="0" width="81" height="21.176" transform="matrix(1,0,0,1,3,4.412)"/></clipPath></defs><g><g><g><path d=" M 113.283 11.603 C 112.993 8.347 110.673 5.985 107.764 5.985 C 106.063 5.985 104.49 6.787 103.457 8.11 C 102.443 6.773 100.924 5.985 99.243 5.985 C 96.344 5.985 94.027 8.334 93.726 11.572 C 93.695 11.782 93.619 12.531 93.894 13.704 C 94.304 15.439 95.248 17.015 96.632 18.269 L 102.937 23.811 C 103.091 23.947 103.284 24.015 103.476 24.015 C 103.668 24.015 103.86 23.948 104.013 23.814 L 110.425 18.22 C 111.371 17.233 112.679 15.69 113.116 13.691 C 113.394 12.413 113.29 11.637 113.283 11.603 Z " fill="rgb(69,69,69)"/></g></g></g></g></svg>